<mxfile host="drawio-plugin" modified="2022-08-24T12:58:41.887Z" agent="5.0 (Macintosh; Intel Mac OS X 10_15_7) AppleWebKit/537.36 (KHTML, like Gecko) Chrome/98.0.4758.102 Safari/537.36" etag="gIRP-lcmGLq9xNBpwrsP" version="15.5.4" type="embed"><diagram id="_mUTx1Qh6k1F5OyqRYpt" name="Page-1"><mxGraphModel dx="912" dy="670" grid="1" gridSize="10" guides="1" tooltips="1" connect="1" arrows="1" fold="1" page="1" pageScale="1" pageWidth="1169" pageHeight="827" math="0" shadow="0"><root><mxCell id="0"/><mxCell id="1" parent="0"/><mxCell id="XoOoSEFYXt-52EfQb45m-16" value="PILOT" style="rounded=0;whiteSpace=wrap;html=1;fontFamily=Courier New;fontSize=13;labelPosition=center;verticalLabelPosition=top;align=center;verticalAlign=bottom;fillColor=#fff2cc;strokeColor=#d6b656;sketch=1;" parent="1" vertex="1"><mxGeometry x="210" y="240" width="230" height="200" as="geometry"/></mxCell><mxCell id="XoOoSEFYXt-52EfQb45m-2" value="PilotCTL" style="rounded=0;whiteSpace=wrap;html=1;fontFamily=Courier New;fontSize=13;fillColor=#fff2cc;strokeColor=#d6b656;sketch=1;" parent="1" vertex="1"><mxGeometry x="530" y="250" width="80" height="120" as="geometry"/></mxCell><mxCell id="XoOoSEFYXt-52EfQb45m-5" value="Open&lt;br style=&quot;font-size: 11px;&quot;&gt;Telemetry&lt;br style=&quot;font-size: 11px;&quot;&gt;Syslog&lt;br style=&quot;font-size: 11px;&quot;&gt;Receiver" style="rounded=0;whiteSpace=wrap;html=1;fontFamily=Courier New;fontSize=11;fillColor=#dae8fc;strokeColor=#6c8ebf;sketch=1;" parent="1" vertex="1"><mxGeometry x="240.00000000000003" y="247.5" width="80" height="62.5" as="geometry"/></mxCell><mxCell id="XoOoSEFYXt-52EfQb45m-7" style="edgeStyle=orthogonalEdgeStyle;rounded=0;orthogonalLoop=1;jettySize=auto;html=1;exitX=1;exitY=0.5;exitDx=0;exitDy=0;entryX=0;entryY=0.5;entryDx=0;entryDy=0;fontFamily=Courier New;fontSize=13;" parent="1" source="XoOoSEFYXt-52EfQb45m-6" target="XoOoSEFYXt-52EfQb45m-2" edge="1"><mxGeometry relative="1" as="geometry"/></mxCell><mxCell id="XoOoSEFYXt-52EfQb45m-19" value="data&lt;br&gt;envelope" style="edgeLabel;html=1;align=center;verticalAlign=middle;resizable=0;points=[];fontFamily=Courier New;fontSize=13;" parent="XoOoSEFYXt-52EfQb45m-7" vertex="1" connectable="0"><mxGeometry x="0.0039" y="1" relative="1" as="geometry"><mxPoint as="offset"/></mxGeometry></mxCell><mxCell id="XoOoSEFYXt-52EfQb45m-6" value="Open&lt;br&gt;Telemetry&lt;br&gt;Onix File&lt;br style=&quot;font-size: 13px&quot;&gt;Exporter" style="rounded=0;whiteSpace=wrap;html=1;fontFamily=Courier New;fontSize=13;fillColor=#dae8fc;strokeColor=#6c8ebf;sketch=1;" parent="1" vertex="1"><mxGeometry x="330" y="247.5" width="80" height="132.5" as="geometry"/></mxCell><mxCell id="XoOoSEFYXt-52EfQb45m-22" style="edgeStyle=orthogonalEdgeStyle;rounded=0;orthogonalLoop=1;jettySize=auto;html=1;exitX=0.5;exitY=1;exitDx=0;exitDy=0;fontFamily=Courier New;fontSize=13;sketch=1;" parent="1" source="XoOoSEFYXt-52EfQb45m-9" target="XoOoSEFYXt-52EfQb45m-10" edge="1"><mxGeometry relative="1" as="geometry"/></mxCell><mxCell id="XoOoSEFYXt-52EfQb45m-9" value="Prometheus" style="rounded=0;whiteSpace=wrap;html=1;fontFamily=Courier New;fontSize=13;fillColor=#d5e8d4;strokeColor=#82b366;sketch=1;" parent="1" vertex="1"><mxGeometry x="740" y="220" width="200" height="30" as="geometry"/></mxCell><mxCell id="XoOoSEFYXt-52EfQb45m-24" style="edgeStyle=orthogonalEdgeStyle;rounded=0;orthogonalLoop=1;jettySize=auto;html=1;exitX=0.5;exitY=1;exitDx=0;exitDy=0;entryX=0.5;entryY=0;entryDx=0;entryDy=0;entryPerimeter=0;fontFamily=Courier New;fontSize=13;sketch=1;" parent="1" source="XoOoSEFYXt-52EfQb45m-10" target="XoOoSEFYXt-52EfQb45m-23" edge="1"><mxGeometry relative="1" as="geometry"/></mxCell><mxCell id="XoOoSEFYXt-52EfQb45m-10" value="Prometheus&lt;br style=&quot;font-size: 13px;&quot;&gt;Receivers" style="rounded=0;whiteSpace=wrap;html=1;fontFamily=Courier New;fontSize=13;fillColor=#fff2cc;strokeColor=#d6b656;sketch=1;" parent="1" vertex="1"><mxGeometry x="740" y="280" width="200" height="60" as="geometry"/></mxCell><mxCell id="XoOoSEFYXt-52EfQb45m-11" value="Open Telemetry&lt;br&gt;Host Metrics&lt;br style=&quot;font-size: 11px;&quot;&gt;Receiver" style="rounded=0;whiteSpace=wrap;html=1;fontFamily=Courier New;fontSize=11;fillColor=#dae8fc;strokeColor=#6c8ebf;sketch=1;" parent="1" vertex="1"><mxGeometry x="240.00000000000003" y="316" width="80" height="64" as="geometry"/></mxCell><mxCell id="XoOoSEFYXt-52EfQb45m-13" style="edgeStyle=orthogonalEdgeStyle;rounded=0;orthogonalLoop=1;jettySize=auto;html=1;exitX=1;exitY=0.5;exitDx=0;exitDy=0;entryX=0;entryY=0.5;entryDx=0;entryDy=0;fontFamily=Courier New;fontSize=13;" parent="1" source="XoOoSEFYXt-52EfQb45m-12" target="XoOoSEFYXt-52EfQb45m-10" edge="1"><mxGeometry relative="1" as="geometry"/></mxCell><mxCell id="XoOoSEFYXt-52EfQb45m-12" value="ROUTER" style="rounded=0;whiteSpace=wrap;html=1;fontFamily=Courier New;fontSize=13;fillColor=#fff2cc;strokeColor=#d6b656;sketch=1;" parent="1" vertex="1"><mxGeometry x="620" y="250" width="80" height="120" as="geometry"/></mxCell><mxCell id="XoOoSEFYXt-52EfQb45m-18" style="edgeStyle=orthogonalEdgeStyle;rounded=0;orthogonalLoop=1;jettySize=auto;html=1;exitX=1;exitY=0.5;exitDx=0;exitDy=0;entryX=0.5;entryY=1;entryDx=0;entryDy=0;fontFamily=Courier New;fontSize=13;" parent="1" source="XoOoSEFYXt-52EfQb45m-17" target="XoOoSEFYXt-52EfQb45m-2" edge="1"><mxGeometry relative="1" as="geometry"><mxPoint x="510" y="500" as="targetPoint"/></mxGeometry></mxCell><mxCell id="XoOoSEFYXt-52EfQb45m-20" value="PING" style="edgeLabel;html=1;align=center;verticalAlign=middle;resizable=0;points=[];fontFamily=Courier New;fontSize=13;" parent="XoOoSEFYXt-52EfQb45m-18" vertex="1" connectable="0"><mxGeometry x="-0.3036" y="-1" relative="1" as="geometry"><mxPoint as="offset"/></mxGeometry></mxCell><mxCell id="XoOoSEFYXt-52EfQb45m-17" value="Control Loop" style="rounded=0;whiteSpace=wrap;html=1;fontFamily=Courier New;fontSize=13;sketch=1;" parent="1" vertex="1"><mxGeometry x="330" y="390" width="80" height="41" as="geometry"/></mxCell><mxCell id="XoOoSEFYXt-52EfQb45m-23" value="" style="shape=cylinder3;whiteSpace=wrap;html=1;boundedLbl=1;backgroundOutline=1;size=15;fontFamily=Courier New;fontSize=13;fillColor=#fff2cc;strokeColor=#d6b656;sketch=1;" parent="1" vertex="1"><mxGeometry x="810" y="360" width="60" height="50" as="geometry"/></mxCell><mxCell id="XoOoSEFYXt-52EfQb45m-26" style="edgeStyle=orthogonalEdgeStyle;rounded=0;orthogonalLoop=1;jettySize=auto;html=1;exitX=0.5;exitY=1;exitDx=0;exitDy=0;entryX=0.5;entryY=0;entryDx=0;entryDy=0;fontFamily=Courier New;fontSize=13;sketch=1;" parent="1" source="XoOoSEFYXt-52EfQb45m-25" target="XoOoSEFYXt-52EfQb45m-9" edge="1"><mxGeometry relative="1" as="geometry"/></mxCell><mxCell id="XoOoSEFYXt-52EfQb45m-28" style="edgeStyle=orthogonalEdgeStyle;rounded=0;orthogonalLoop=1;jettySize=auto;html=1;exitX=0.5;exitY=0;exitDx=0;exitDy=0;fontFamily=Courier New;fontSize=13;sketch=1;" parent="1" source="XoOoSEFYXt-52EfQb45m-25" target="XoOoSEFYXt-52EfQb45m-27" edge="1"><mxGeometry relative="1" as="geometry"/></mxCell><mxCell id="XoOoSEFYXt-52EfQb45m-25" value="Prometheus Alert Manager" style="rounded=0;whiteSpace=wrap;html=1;fontFamily=Courier New;fontSize=13;fillColor=#d5e8d4;strokeColor=#82b366;sketch=1;" parent="1" vertex="1"><mxGeometry x="740" y="170" width="200" height="30" as="geometry"/></mxCell><mxCell id="XoOoSEFYXt-52EfQb45m-29" style="edgeStyle=orthogonalEdgeStyle;rounded=0;orthogonalLoop=1;jettySize=auto;html=1;exitX=0;exitY=0.5;exitDx=0;exitDy=0;entryX=0.5;entryY=0;entryDx=0;entryDy=0;fontFamily=Courier New;fontSize=13;" parent="1" source="XoOoSEFYXt-52EfQb45m-27" target="XoOoSEFYXt-52EfQb45m-2" edge="1"><mxGeometry relative="1" as="geometry"/></mxCell><mxCell id="XoOoSEFYXt-52EfQb45m-30" value="CMD" style="edgeLabel;html=1;align=center;verticalAlign=middle;resizable=0;points=[];fontFamily=Courier New;fontSize=13;" parent="XoOoSEFYXt-52EfQb45m-29" vertex="1" connectable="0"><mxGeometry x="-0.2497" relative="1" as="geometry"><mxPoint as="offset"/></mxGeometry></mxCell><mxCell id="XoOoSEFYXt-52EfQb45m-27" value="Prometheus WebHook Receiver" style="rounded=0;whiteSpace=wrap;html=1;fontFamily=Courier New;fontSize=13;fillColor=#fff2cc;strokeColor=#d6b656;sketch=1;" parent="1" vertex="1"><mxGeometry x="740" y="120" width="200" height="30" as="geometry"/></mxCell></root></mxGraphModel></diagram></mxfile>